<svg width="20" height="20" viewBox="0 0 20 20" fill="none" xmlns="http://www.w3.org/2000/svg">
<path d="M16.6667 6.66671H14.1667V3.33337H2.50001C1.58334 3.33337 0.833344 4.08337 0.833344 5.00004V14.1667H2.50001C2.50001 15.55 3.61668 16.6667 5.00001 16.6667C6.38334 16.6667 7.50001 15.55 7.50001 14.1667H12.5C12.5 15.55 13.6167 16.6667 15 16.6667C16.3833 16.6667 17.5 15.55 17.5 14.1667H19.1667V10L16.6667 6.66671ZM16.25 7.91671L17.8833 10H14.1667V7.91671H16.25ZM5.00001 15C4.54168 15 4.16668 14.625 4.16668 14.1667C4.16668 13.7084 4.54168 13.3334 5.00001 13.3334C5.45834 13.3334 5.83334 13.7084 5.83334 14.1667C5.83334 14.625 5.45834 15 5.00001 15ZM6.85001 12.5C6.39168 11.9917 5.74168 11.6667 5.00001 11.6667C4.25834 11.6667 3.60834 11.9917 3.15001 12.5H2.50001V5.00004H12.5V12.5H6.85001ZM15 15C14.5417 15 14.1667 14.625 14.1667 14.1667C14.1667 13.7084 14.5417 13.3334 15 13.3334C15.4583 13.3334 15.8333 13.7084 15.8333 14.1667C15.8333 14.625 15.4583 15 15 15Z" fill="#4E4B66"/>
</svg>
